HIERARCHY
ROOT Root
{
  OFFSET 0.0 0.0 0.0
  CHANNELS 6 Xposition Yposition Zposition Zrotation Yrotation Xrotation
  JOINT Hips
  {
    OFFSET 0.0 100.0 0.0
    CHANNELS 6 Xposition Yposition Zposition Zrotation Yrotation Xrotation
    JOINT Spine1
    {
      OFFSET 5.003913 -0.037094 -0.013727
      CHANNELS 3 Zrotation Yrotation Xrotation
      JOINT Spine2
      {
        OFFSET 7.125363 -1e-06 0.0
        CHANNELS 3 Zrotation Yrotation Xrotation
        JOINT Chest
        {
          OFFSET 7.594027 1e-06 0.0
          CHANNELS 3 Zrotation Yrotation Xrotation
          JOINT Neck1
          {
            OFFSET 26.313086 -0.460272 -0.181672
            CHANNELS 3 Zrotation Yrotation Xrotation
            JOINT Neck2
            {
              OFFSET 8.045911 0.0 0.0
              CHANNELS 3 Zrotation Yrotation Xrotation
              JOINT Head
              {
                OFFSET 6.432774 0.0 0.0
                CHANNELS 3 Zrotation Yrotation Xrotation
                JOINT HeadEnd
                {
                  OFFSET 16.169773 0.06451 0.00362
                  CHANNELS 3 Zrotation Yrotation Xrotation
                }
                JOINT Jaw
                {
                  OFFSET 0.108741 3.12938 0.002639
                  CHANNELS 3 Zrotation Yrotation Xrotation
                }
                JOINT LeftEye
                {
                  OFFSET 4.45173 8.166359 3.206392
                  CHANNELS 3 Zrotation Yrotation Xrotation
                }
                JOINT RightEye
                {
                  OFFSET 4.436895 8.135758 -3.222429
                  CHANNELS 3 Zrotation Yrotation Xrotation
                }
              }
            }
          }
          JOINT LeftShoulder
          {
            OFFSET 23.218927 5.195579 1.621656
            CHANNELS 3 Zrotation Yrotation Xrotation
            JOINT LeftArm
            {
              OFFSET 15.902118 2e-06 -2e-06
              CHANNELS 3 Zrotation Yrotation Xrotation
              JOINT LeftForeArm
              {
                OFFSET 28.739307 0.0 -1e-06
                CHANNELS 3 Zrotation Yrotation Xrotation
                JOINT LeftHand
                {
                  OFFSET 27.093981 -4e-06 0.0
                  CHANNELS 3 Zrotation Yrotation Xrotation
                  JOINT LeftHandThumb1
                  {
                    OFFSET 2.276781 3.380274 0.83384
                    CHANNELS 3 Zrotation Yrotation Xrotation
                    JOINT LeftHandThumb2
                    {
                      OFFSET 4.705309 -1e-06 -1e-06
                      CHANNELS 3 Zrotation Yrotation Xrotation
                      JOINT LeftHandThumb3
                      {
                        OFFSET 2.798515 0.0 3e-06
                        CHANNELS 3 Zrotation Yrotation Xrotation
                        JOINT LeftHandThumbEnd
                        {
                          OFFSET 3.180793 4e-06 -4e-06
                          CHANNELS 3 Zrotation Yrotation Xrotation
                        }
                      }
                    }
                  }
                  JOINT LeftHandIndex1
                  {
                    OFFSET 3.247786 2.352677 0.137192
                    CHANNELS 3 Zrotation Yrotation Xrotation
                    JOINT LeftHandIndex2
                    {
                      OFFSET 6.367095 1e-06 0.0
                      CHANNELS 3 Zrotation Yrotation Xrotation
                      JOINT LeftHandIndex3
                      {
                        OFFSET 3.662364 0.0 0.0
                        CHANNELS 3 Zrotation Yrotation Xrotation
                        JOINT LeftHandIndex4
                        {
                          OFFSET 2.329242 4e-06 -4e-06
                          CHANNELS 3 Zrotation Yrotation Xrotation
                          JOINT LeftHandIndexEnd
                          {
                            OFFSET 2.767823 1e-06 0.0
                            CHANNELS 3 Zrotation Yrotation Xrotation
                          }
                        }
                      }
                    }
                  }
                  JOINT LeftHandMiddle1
                  {
                    OFFSET 3.163612 0.945023 -0.406112
                    CHANNELS 3 Zrotation Yrotation Xrotation
                    JOINT LeftHandMiddle2
                    {
                      OFFSET 6.276789 3e-06 0.0
                      CHANNELS 3 Zrotation Yrotation Xrotation
                      JOINT LeftHandMiddle3
                      {
                        OFFSET 4.35652 -1e-06 4e-06
                        CHANNELS 3 Zrotation Yrotation Xrotation
                        JOINT LeftHandMiddle4
                        {
                          OFFSET 2.996877 0.0 8e-06
                          CHANNELS 3 Zrotation Yrotation Xrotation
                          JOINT LeftHandMiddleEnd
                          {
                            OFFSET 2.323256 3e-06 -4e-06
                            CHANNELS 3 Zrotation Yrotation Xrotation
                          }
                        }
                      }
                    }
                  }
                  JOINT LeftHandRing1
                  {
                    OFFSET 2.882606 -0.309162 0.107445
                    CHANNELS 3 Zrotation Yrotation Xrotation
                    JOINT LeftHandRing2
                    {
                      OFFSET 6.033198 0.0 4e-06
                      CHANNELS 3 Zrotation Yrotation Xrotation
                      JOINT LeftHandRing3
                      {
                        OFFSET 4.350578 3e-06 0.0
                        CHANNELS 3 Zrotation Yrotation Xrotation
                        JOINT LeftHandRing4
                        {
                          OFFSET 2.651321 2e-06 -7e-06
                          CHANNELS 3 Zrotation Yrotation Xrotation
                          JOINT LeftHandRingEnd
                          {
                            OFFSET 1.937663 1e-06 -4e-06
                            CHANNELS 3 Zrotation Yrotation Xrotation
                          }
                        }
                      }
                    }
                  }
                  JOINT LeftHandPinky1
                  {
                    OFFSET 2.865315 -1.525436 0.575687
                    CHANNELS 3 Zrotation Yrotation Xrotation
                    JOINT LeftHandPinky2
                    {
                      OFFSET 5.54936 1e-06 -8e-06
                      CHANNELS 3 Zrotation Yrotation Xrotation
                      JOINT LeftHandPinky3
                      {
                        OFFSET 3.070974 0.0 -4e-06
                        CHANNELS 3 Zrotation Yrotation Xrotation
                        JOINT LeftHandPinky4
                        {
                          OFFSET 1.549672 1e-06 0.0
                          CHANNELS 3 Zrotation Yrotation Xrotation
                          JOINT LeftHandPinkyEnd
                          {
                            OFFSET 1.952123 0.0 0.0
                            CHANNELS 3 Zrotation Yrotation Xrotation
                          }
                        }
                      }
                    }
                  }
                }
              }
            }
          }
          JOINT RightShoulder
          {
            OFFSET 23.161716 5.296122 -1.380114
            CHANNELS 3 Zrotation Yrotation Xrotation
            JOINT RightArm
            {
              OFFSET -16.027195 -2e-06 1.1e-05
              CHANNELS 3 Zrotation Yrotation Xrotation
              JOINT RightForeArm
              {
                OFFSET -28.736639 4e-06 2e-06
                CHANNELS 3 Zrotation Yrotation Xrotation
                JOINT RightHand
                {
                  OFFSET -27.133619 6e-06 0.0
                  CHANNELS 3 Zrotation Yrotation Xrotation
                  JOINT RightHandThumb1
                  {
                    OFFSET -2.274328 -3.351035 -0.83067
                    CHANNELS 3 Zrotation Yrotation Xrotation
                    JOINT RightHandThumb2
                    {
                      OFFSET -4.703594 -3e-06 2e-06
                      CHANNELS 3 Zrotation Yrotation Xrotation
                      JOINT RightHandThumb3
                      {
                        OFFSET -2.794935 -4e-06 -3e-06
                        CHANNELS 3 Zrotation Yrotation Xrotation
                        JOINT RightHandThumbEnd
                        {
                          OFFSET -3.183852 4e-06 1e-06
                          CHANNELS 3 Zrotation Yrotation Xrotation
                        }
                      }
                    }
                  }
                  JOINT RightHandIndex1
                  {
                    OFFSET -3.253496 -2.33755 -0.127667
                    CHANNELS 3 Zrotation Yrotation Xrotation
                    JOINT RightHandIndex2
                    {
                      OFFSET -6.344434 0.0 0.0
                      CHANNELS 3 Zrotation Yrotation Xrotation
                      JOINT RightHandIndex3
                      {
                        OFFSET -3.654871 0.0 -8e-06
                        CHANNELS 3 Zrotation Yrotation Xrotation
                        JOINT RightHandIndex4
                        {
                          OFFSET -2.327586 -1e-06 0.0
                          CHANNELS 3 Zrotation Yrotation Xrotation
                          JOINT RightHandIndexEnd
                          {
                            OFFSET -2.770001 3e-06 8e-06
                            CHANNELS 3 Zrotation Yrotation Xrotation
                          }
                        }
                      }
                    }
                  }
                  JOINT RightHandMiddle1
                  {
                    OFFSET -3.168223 -0.944764 0.411762
                    CHANNELS 3 Zrotation Yrotation Xrotation
                    JOINT RightHandMiddle2
                    {
                      OFFSET -6.266691 -1e-06 -4e-06
                      CHANNELS 3 Zrotation Yrotation Xrotation
                      JOINT RightHandMiddle3
                      {
                        OFFSET -4.348901 0.0 0.0
                        CHANNELS 3 Zrotation Yrotation Xrotation
                        JOINT RightHandMiddle4
                        {
                          OFFSET -3.00024 2e-06 -4e-06
                          CHANNELS 3 Zrotation Yrotation Xrotation
                          JOINT RightHandMiddleEnd
                          {
                            OFFSET -2.321477 -4e-06 -4e-06
                            CHANNELS 3 Zrotation Yrotation Xrotation
                          }
                        }
                      }
                    }
                  }
                  JOINT RightHandRing1
                  {
                    OFFSET -2.885654 0.293261 -0.119232
                    CHANNELS 3 Zrotation Yrotation Xrotation
                    JOINT RightHandRing2
                    {
                      OFFSET -6.032835 -1e-06 -4e-06
                      CHANNELS 3 Zrotation Yrotation Xrotation
                      JOINT RightHandRing3
                      {
                        OFFSET -4.33881 0.0 -4e-06
                        CHANNELS 3 Zrotation Yrotation Xrotation
                        JOINT RightHandRing4
                        {
                          OFFSET -2.654903 -4e-06 -4e-06
                          CHANNELS 3 Zrotation Yrotation Xrotation
                          JOINT RightHandRingEnd
                          {
                            OFFSET -1.935122 0.0 4e-06
                            CHANNELS 3 Zrotation Yrotation Xrotation
                          }
                        }
                      }
                    }
                  }
                  JOINT RightHandPinky1
                  {
                    OFFSET -2.866241 1.503904 -0.60527
                    CHANNELS 3 Zrotation Yrotation Xrotation
                    JOINT RightHandPinky2
                    {
                      OFFSET -5.553177 -2e-06 0.0
                      CHANNELS 3 Zrotation Yrotation Xrotation
                      JOINT RightHandPinky3
                      {
                        OFFSET -3.062664 -1e-06 -4e-06
                        CHANNELS 3 Zrotation Yrotation Xrotation
                        JOINT RightHandPinky4
                        {
                          OFFSET -1.546529 2e-06 4e-06
                          CHANNELS 3 Zrotation Yrotation Xrotation
                          JOINT RightHandPinkyEnd
                          {
                            OFFSET -1.952341 0.0 -4e-06
                            CHANNELS 3 Zrotation Yrotation Xrotation
                          }
                        }
                      }
                    }
                  }
                }
              }
            }
          }
        }
      }
    }
    JOINT LeftLeg
    {
      OFFSET -8.443107 2.567604 10.043214
      CHANNELS 3 Zrotation Yrotation Xrotation
      JOINT LeftShin
      {
        OFFSET 43.229198 1e-06 -1e-06
        CHANNELS 3 Zrotation Yrotation Xrotation
        JOINT LeftFoot
        {
          OFFSET 42.298611 1e-06 1e-06
          CHANNELS 3 Zrotation Yrotation Xrotation
          JOINT LeftToeBase
          {
            OFFSET 14.165858 1e-06 0.0
            CHANNELS 3 Zrotation Yrotation Xrotation
            JOINT LeftToeEnd
            {
              OFFSET 6.7141 -0.234461 0.0
              CHANNELS 3 Zrotation Yrotation Xrotation
            }
          }
        }
      }
    }
    JOINT RightLeg
    {
      OFFSET -8.303923 2.592729 -10.047278
      CHANNELS 3 Zrotation Yrotation Xrotation
      JOINT RightShin
      {
        OFFSET -43.369682 0.0 1e-06
        CHANNELS 3 Zrotation Yrotation Xrotation
        JOINT RightFoot
        {
          OFFSET -42.260784 4e-06 2e-06
          CHANNELS 3 Zrotation Yrotation Xrotation
          JOINT RightToeBase
          {
            OFFSET -14.222245 -2e-06 -1e-06
            CHANNELS 3 Zrotation Yrotation Xrotation
            JOINT RightToeEnd
            {
              OFFSET -6.660062 0.232574 -2e-06
              CHANNELS 3 Zrotation Yrotation Xrotation
            }
          }
        }
      }
    }
  }
}
MOTION
Frames: 5
Frame Time: 0.03333333333333333
0.0 0.0 0.0 0.0 -0.0 0.0 3.81298 48.273956 -5.494788 92.519524 -53.270535 88.857857 15.760716 -0.925888 0.490813 -4.746419 -0.505731 0.465393 19.48181 -3.414924 -2.382951 22.468468 -0.495362 3.009723 -2.579861 -0.494965 -1.647856 -27.24086 3.927315 -3.109886 6e-06 -0.0 -0.0 -0.197883 0.026366 -0.006195 0.006462 0.112858 0.064358 -0.048836 -0.056837 -0.079413 40.204376 -83.409081 -35.799286 67.760124 -11.407292 -34.275536 35.970715 -0.458027 0.23773 31.688919 65.937614 42.709782 17.636623 -26.322723 52.411198 -19.466663 -14.395597 29.410395 -1e-06 -8.774821 -1e-06 15.448647 -18.319431 6.959518 -0.609776 -1.795654 -3.889328 -4.807087 -11.046811 -2.937852 7e-06 -20.976015 -2e-06 -5.019968 -25.03356 -4.031883 5e-06 -0.0 -0.0 -10.634536 -5.686973 -3.565587 10.573277 -17.922951 -3.113903 3e-06 -13.821211 -0.0 -0.501774 -31.181505 -4.027019 -10.950427 -58.941158 6.788208 -13.982715 -7.150199 -2.875043 13.772731 -8.401491 -3.218242 0.347736 -34.211555 0.77165 -0.963027 -17.73337 2.62102 0.0 -1e-06 -0.0 -17.346418 -20.095219 -4.201783 21.757557 -1.638376 3.866427 0.0 -6.338825 1e-06 -1.697588 -22.591747 -6.194008 -0.0 -2e-06 -5e-06 -167.185638 -75.824303 -11.70556 72.543541 -10.704399 -51.248631 27.609396 -0.870726 -0.47617 33.973667 46.751472 34.33271 22.182116 -20.375891 49.933319 -16.701818 -16.74353 28.47653 -3e-06 -12.690603 -1e-06 15.68755 -18.229446 3.003803 -0.105919 -1.513857 -4.275882 -5.039041 -5.612871 -2.953555 6e-06 -11.020523 -1e-06 -6.111297 -15.895332 -3.840471 0.0 1e-06 -0.0 -10.283369 -5.680286 -4.341839 11.028296 -11.302405 -2.372633 -1.384268 -14.238581 -6.320121 -0.625435 -26.924194 -3.8276 -4.652997 -49.347633 -3.642969 -13.708525 -7.363473 -3.720939 18.141153 -14.052739 -3.242676 7e-06 -18.78727 -2e-06 -0.429708 -8.45604 2.555503 -1e-06 -1e-06 1e-06 -15.923531 -20.094479 -5.473587 30.41921 -7.190827 1.735923 4e-06 -8.162924 0.0 -1.8619 -22.861465 -6.167941 -0.0 -2e-06 -2e-06 110.63929 3.176363 1.819075 122.426277 1.394486 0.56672 -61.379597 10.346519 1.046592 -11.068705 1.2993 1.830779 -0.999997 1e-06 0.0 -48.363697 -12.388362 -6.392042 106.983627 -1.327739 0.392551 -65.414429 -6.389056 -2.70084 -11.49111 0.779836 1.720369 -1.000001 0.0 -0.0 
0.0 0.0 0.0 0.0 -0.0 0.0 3.547917 48.508263 -4.042572 92.623985 -54.017563 88.105476 15.557057 -0.743452 0.613594 -4.831615 -0.396418 0.515887 19.366987 -3.396576 -2.35511 22.468021 -0.806129 2.776156 -2.544058 -0.338058 -1.548585 -27.239052 3.848857 -2.992285 7e-06 0.0 0.0 -0.188395 0.033298 -0.012083 0.013384 0.082774 0.062595 -0.030929 -0.013473 -0.089789 49.170193 -83.836395 -44.29845 66.636833 -12.860833 -34.888424 36.498894 -0.476368 0.187011 34.941662 65.488518 46.651089 17.636625 -26.322727 52.411186 -19.46666 -14.395598 29.410385 -0.0 -8.774817 -1e-06 15.606416 -18.261017 6.879798 -0.609778 -1.795654 -3.889327 -4.807087 -11.046811 -2.93785 4e-06 -20.976015 -0.0 -5.019971 -25.033556 -4.031882 6e-06 -0.0 1e-06 -10.634535 -5.68697 -3.565586 10.573271 -17.922947 -3.113901 2e-06 -13.821206 1e-06 -0.501778 -31.181501 -4.027017 -11.048352 -59.179676 7.002618 -13.982714 -7.150196 -2.875041 13.772731 -8.401491 -3.218242 0.347732 -34.211552 0.771653 -0.96303 -17.73337 2.621019 0.0 -0.0 1e-06 -17.346416 -20.095217 -4.20178 21.757555 -1.638374 3.866426 1e-06 -6.338823 0.0 -1.69759 -22.591743 -6.194006 -1e-06 -5e-06 -5e-06 -168.481461 -75.857918 -10.162874 73.844803 -10.151093 -50.462711 27.25893 -0.571754 -0.41272 34.165493 47.409698 35.021828 22.182121 -20.375891 49.933315 -16.701813 -16.743525 28.476526 -3e-06 -12.6906 -2e-06 15.718309 -18.161795 3.041423 -0.105919 -1.513857 -4.27588 -5.039041 -5.612873 -2.953557 4e-06 -11.020525 -2e-06 -6.1113 -15.895338 -3.840469 -0.0 1e-06 -0.0 -10.28337 -5.680288 -4.341839 11.028294 -11.302406 -2.37263 -1.384269 -14.238585 -6.320121 -0.625437 -26.924191 -3.827603 -4.599666 -49.349964 -3.518859 -13.708524 -7.363474 -3.720941 18.141148 -14.052739 -3.242673 6e-06 -18.787271 -3e-06 -0.429711 -8.456043 2.555503 -0.0 1e-06 0.0 -15.923534 -20.094482 -5.473585 30.41921 -7.190827 1.735927 3e-06 -8.162927 0.0 -1.8619 -22.861469 -6.167943 1e-06 -2e-06 -1e-06 111.925018 2.571307 1.945198 120.602699 1.34276 0.562983 -61.433064 10.563881 1.022696 -10.75487 1.286285 1.878219 -0.999998 1e-06 0.0 -47.840599 -11.800372 -5.996278 105.166313 -1.417777 0.432174 -65.866455 -6.668071 -2.788345 -11.193257 0.738539 1.760066 -1.000001 -0.0 0.0 
0.0 0.0 0.0 0.0 -0.0 0.0 3.334403 48.904221 -2.190938 92.850647 -54.302673 87.098976 15.497303 -0.569895 0.785366 -4.834525 -0.375423 0.55094 19.457317 -3.195254 -2.397901 22.332739 -1.1394 2.64252 -2.562173 -0.322149 -1.3627 -27.091133 3.557892 -2.706821 8e-06 -0.0 -0.0 -0.185389 0.0297 -0.013438 -0.072648 0.06063 0.03661 -0.110071 0.003 -0.070267 60.935738 -83.783089 -55.713318 64.925743 -14.711457 -35.765907 37.23576 -0.276024 0.241173 35.972473 64.763268 48.182602 17.636633 -26.322737 52.411186 -19.466658 -14.395594 29.410378 -1e-06 -8.774818 -3e-06 15.951886 -18.296194 6.726358 -0.609777 -1.795654 -3.889328 -4.80709 -11.046813 -2.937849 2e-06 -20.976019 1e-06 -5.019969 -25.03356 -4.031879 6e-06 -0.0 -0.0 -10.634533 -5.686973 -3.565588 10.573272 -17.922951 -3.113899 3e-06 -13.821213 2e-06 -0.501779 -31.181505 -4.027014 -11.118196 -59.66507 7.185496 -13.982714 -7.150199 -2.875041 13.772728 -8.401491 -3.218239 0.347733 -34.211555 0.771657 -0.96303 -17.733372 2.621019 -0.0 -1e-06 1e-06 -17.346422 -20.095221 -4.20178 21.757557 -1.638375 3.866428 0.0 -6.338827 1e-06 -1.69759 -22.591745 -6.194005 -1e-06 -5e-06 -5e-06 -168.767639 -75.868988 -9.779694 75.314186 -9.737773 -48.914291 26.545942 -0.289448 -0.319508 34.803757 48.898819 37.052082 22.182119 -20.375895 49.933319 -16.701815 -16.743526 28.47653 -3e-06 -12.690601 0.0 15.644406 -18.006668 3.164063 -0.10592 -1.513858 -4.275881 -5.03904 -5.612873 -2.953558 4e-06 -11.020521 -1e-06 -6.111296 -15.89533 -3.840474 1e-06 -0.0 2e-06 -10.283368 -5.680288 -4.341839 11.028291 -11.302406 -2.372632 -1.384269 -14.23858 -6.320121 -0.62544 -26.924191 -3.827601 -4.447293 -49.275116 -3.514374 -13.708524 -7.363477 -3.720941 18.141148 -14.052739 -3.242673 7e-06 -18.787271 -3e-06 -0.429711 -8.456043 2.555504 -0.0 -0.0 -0.0 -15.923532 -20.094484 -5.473586 30.419207 -7.190825 1.735927 3e-06 -8.162927 0.0 -1.8619 -22.861469 -6.167942 -1e-06 -2e-06 -1e-06 114.278725 1.897713 1.73066 118.092445 1.223593 0.52767 -61.536774 10.794807 1.316783 -10.891402 1.284234 1.876377 -0.999998 0.0 -0.0 -47.300144 -11.119705 -4.980354 103.899399 -1.616515 0.443337 -66.752625 -6.924566 -2.980525 -11.242812 0.699762 1.819399 -1.000003 0.0 -0.0 
0.0 0.0 0.0 0.0 -0.0 0.0 3.176322 49.325798 -0.269174 93.068123 -54.366112 85.863419 15.561276 -0.413869 0.944831 -4.847171 -0.34416 0.537693 19.549854 -2.879518 -2.359141 22.068104 -1.620097 2.484143 -2.604983 -0.39963 -1.014569 -26.969765 3.148378 -2.18049 7e-06 -0.0 0.0 -0.182782 0.051805 -0.016667 -0.169066 0.0754 0.004915 -0.213057 0.035466 -0.047808 71.142838 -83.380348 -65.700119 62.949188 -16.584248 -36.804916 38.455948 0.022355 0.419735 35.108047 63.78746 48.466599 17.636631 -26.322729 52.411201 -19.466663 -14.3956 29.410395 -2e-06 -8.774821 -1e-06 16.254801 -18.442991 6.592179 -0.609776 -1.795654 -3.889328 -4.807089 -11.046811 -2.93785 4e-06 -20.976015 -1e-06 -5.019969 -25.033554 -4.031883 5e-06 0.0 -2e-06 -10.634536 -5.686969 -3.565589 10.573277 -17.922951 -3.1139 4e-06 -13.821212 1e-06 -0.501776 -31.181505 -4.027018 -11.284991 -60.041264 7.382801 -13.982714 -7.150197 -2.875043 13.772729 -8.401493 -3.218241 0.347735 -34.211555 0.771654 -0.963029 -17.73337 2.62102 0.0 0.0 1e-06 -17.346424 -20.095221 -4.201783 21.757565 -1.638377 3.866429 1e-06 -6.338824 1e-06 -1.697588 -22.591745 -6.194008 -1e-06 -4e-06 -3e-06 -168.507874 -75.770416 -10.093303 77.077187 -9.452316 -46.91095 25.405703 0.040389 -0.215024 35.530266 50.430729 39.229771 22.182121 -20.375898 49.933319 -16.701815 -16.743528 28.47653 -2e-06 -12.690601 -1e-06 15.645663 -17.916035 3.25263 -0.10592 -1.513855 -4.27588 -5.039041 -5.612872 -2.953556 5e-06 -11.02052 -1e-06 -6.111298 -15.895334 -3.840472 1e-06 1e-06 1e-06 -10.283371 -5.680287 -4.341837 11.028294 -11.302407 -2.372631 -1.384269 -14.238581 -6.32012 -0.625436 -26.924187 -3.827601 -4.351762 -49.262455 -3.564794 -13.708525 -7.363474 -3.720939 18.141148 -14.052738 -3.242674 5e-06 -18.787271 0.0 -0.429711 -8.456043 2.555503 1e-06 1e-06 0.0 -15.923534 -20.094482 -5.473584 30.41921 -7.190827 1.735926 2e-06 -8.162925 0.0 -1.861902 -22.861471 -6.16794 1e-06 -4e-06 -1e-06 116.972809 1.195244 1.354293 115.407387 1.090037 0.484142 -61.725651 11.151056 1.634197 -11.472622 1.298226 1.825779 -0.999996 1e-06 0.0 -47.644051 -10.531171 -3.419479 104.403259 -1.772751 0.40177 -68.457802 -7.448085 -3.068242 -10.594393 0.644271 1.910984 -1.000002 0.0 0.0 
0.0 0.0 0.0 0.0 -0.0 0.0 3.065628 49.699299 1.696917 93.19545 -54.303146 84.505363 15.741632 -0.248129 1.071671 -4.849697 -0.302558 0.506425 19.609758 -2.471268 -2.237499 21.69735 -2.21492 2.291751 -2.626885 -0.487876 -0.45071 -26.915726 2.854345 -1.439134 6e-06 0.0 0.0 -0.184006 0.073084 -0.020265 -0.240482 0.091137 -0.009735 -0.285983 0.064407 -0.040021 76.630135 -82.929504 -71.112267 60.7579 -18.157326 -38.125546 40.981213 0.230522 0.725823 33.213013 62.479691 48.396008 17.636625 -26.322729 52.411194 -19.466661 -14.395596 29.410393 -2e-06 -8.774818 -0.0 16.503786 -18.596884 6.53809 -0.609776 -1.795655 -3.889327 -4.807087 -11.046809 -2.937851 5e-06 -20.976015 -0.0 -5.019968 -25.033556 -4.03188 6e-06 1e-06 -0.0 -10.634533 -5.686969 -3.565588 10.573276 -17.922951 -3.113901 4e-06 -13.821209 1e-06 -0.501776 -31.181505 -4.027016 -11.628242 -60.357979 7.666082 -13.982712 -7.150198 -2.875042 13.772728 -8.401493 -3.21824 0.347737 -34.211544 0.771652 -0.963026 -17.733368 2.62102 0.0 0.0 -0.0 -17.346416 -20.095217 -4.201784 21.757555 -1.638377 3.866428 1e-06 -6.338823 0.0 -1.697587 -22.59174 -6.194006 -1e-06 -5e-06 -3e-06 -167.697128 -75.635162 -11.04252 78.975258 -9.298402 -44.58725 24.157845 0.400192 -0.106833 36.375462 51.996033 41.521122 22.182121 -20.375902 49.933346 -16.701817 -16.743532 28.47654 -3e-06 -12.690603 -0.0 15.672578 -17.852655 3.324884 -0.10592 -1.513856 -4.275883 -5.039042 -5.612873 -2.953559 4e-06 -11.020527 -1e-06 -6.1113 -15.895338 -3.840474 -1e-06 1e-06 1e-06 -10.283373 -5.68029 -4.34184 11.028296 -11.302406 -2.372635 -1.384269 -14.238585 -6.320123 -0.625437 -26.924192 -3.827605 -4.360758 -49.221794 -3.613657 -13.708527 -7.363477 -3.720941 18.141155 -14.052741 -3.242676 5e-06 -18.787273 -2e-06 -0.42971 -8.456043 2.555503 -0.0 -1e-06 0.0 -15.923539 -20.094492 -5.473589 30.419218 -7.190824 1.735928 4e-06 -8.162929 -1e-06 -1.861901 -22.861473 -6.167943 -1e-06 -3e-06 -1e-06 119.861336 0.485208 0.906972 112.616676 0.970051 0.435227 -61.833633 11.784889 1.863441 -12.12012 1.303034 1.786511 -0.999999 1e-06 0.0 -49.322639 -9.976959 -1.485322 106.858818 -1.813679 0.322705 -70.705269 -7.710953 -2.643936 -9.90051 0.601524 1.966191 -1.000002 -0.0 0.0 
